<?xml version="1.0" encoding="UTF-8"?>
<svg version="1.1" xmlns="http://www.w3.org/2000/svg" width="748" height="180">
<path d="M0 0 C82.35867537 0 82.35867537 0 102.42578125 19.1796875 C118.03982792 36.28642755 120.99732367 59.20628904 120.15234375 81.46728516 C119.18045172 97.6249902 115.09050244 112.11050038 105 125 C104.236875 126.051875 103.47375 127.10375 102.6875 128.1875 C91.59623934 139.79463325 78.46694895 143.36071789 63 147 C42.21 147 21.42 147 0 147 C0 98.49 0 49.98 0 0 Z M18 16 C18 54.28 18 92.56 18 132 C54.22327542 133.91153143 54.22327542 133.91153143 86.4765625 119.9296875 C98.29681542 107.57818725 100.56775663 90.59353237 100.4375 74.1875 C100.43137695 72.87249512 100.42525391 71.55749023 100.41894531 70.20263672 C100.26417708 60.57486183 99.38047845 52.04601899 96 43 C95.58427734 41.824375 95.58427734 41.824375 95.16015625 40.625 C91.19710379 31.27438774 83.5090703 24.62798034 74.578125 20.25390625 C54.75757088 13.30805705 41.26055901 16 18 16 Z " fill="#4E39F3" transform="translate(323,7)"/>
<path d="M0 0 C81.33463542 0 81.33463542 0 101.25 18.6875 C118.85895999 37.24527875 119.77978439 61.13931889 119.17480469 85.37744141 C118.27038244 104.12020306 110.90179219 120.34145752 97 133 C69.69713322 154.52573845 32.19099398 147 0 147 C0 98.49 0 49.98 0 0 Z M18 16 C18 54.28 18 92.56 18 132 C54.27891256 134.03190653 54.27891256 134.03190653 86.3125 119.5 C99.79790827 104.6660509 100.97942289 84.66216798 100.17285156 65.61962891 C99.53927636 56.01756401 97.79629742 46.44279751 93 38 C92.40445313 36.88238281 92.40445313 36.88238281 91.796875 35.7421875 C85.91277655 25.76627347 76.97854888 20.72076571 66.04296875 17.69140625 C49.58052751 13.95090291 37.53241399 16 18 16 Z " fill="#4E39F1" transform="translate(479,7)"/>
<path d="M0 0 C-2.81909115 13.1899549 -6.01995112 26.26505096 -9.3737793 39.32861328 C-10.20036007 42.55012071 -11.02133059 45.77302423 -11.84179688 48.99609375 C-12.36686105 51.04956267 -12.89223946 53.10295127 -13.41796875 55.15625 C-13.78513252 56.59816711 -13.78513252 56.59816711 -14.15971375 58.06921387 C-14.38697647 58.9519397 -14.6142392 59.83466553 -14.84838867 60.74414062 C-15.04728195 61.52035767 -15.24617523 62.29657471 -15.45109558 63.09631348 C-16 65 -16 65 -17 67 C-15.0974646 67.400979 -15.0974646 67.400979 -13.15649414 67.81005859 C-7.86299602 68.98805577 -2.68973127 70.48529092 2.50390625 72.0390625 C3.4677977 72.32478119 4.43168915 72.61049988 5.42478943 72.90487671 C8.47155379 73.80871545 11.51703777 74.71678459 14.5625 75.625 C16.64119253 76.24246871 18.7199678 76.85965894 20.79882812 77.4765625 C25.86684629 78.9811574 30.93382306 80.48921776 36 82 C34.08399704 86.2760899 31.11178181 88.7472304 27.5625 91.6875 C26.93142334 92.21931885 26.30034668 92.7511377 25.65014648 93.29907227 C21.10693084 97.11638416 16.50424153 100.8601909 11.8984375 104.6015625 C6.48082397 109.08460119 1.20434376 113.73222362 -4.09912109 118.34912109 C-12.04366928 125.24881733 -20.06005266 132.06531273 -28.1015625 138.8515625 C-31.5275223 141.74533437 -34.93563456 144.6589022 -38.33447266 147.58447266 C-43.23483534 151.80062871 -48.15011113 155.99690073 -53.125 160.125 C-53.97320312 160.82882813 -54.82140625 161.53265625 -55.6953125 162.2578125 C-57.7552111 163.81495619 -59.68561858 164.8887803 -62 166 C-60.40719476 158.22468489 -58.20033137 150.69506373 -55.90234375 143.1015625 C-55.50376429 141.77647863 -55.10545878 140.45131232 -54.70741272 139.12606812 C-53.66677135 135.66422695 -52.62220315 132.20358283 -51.57684326 128.74316406 C-50.72241064 125.91240228 -49.87074988 123.08081022 -49.01923275 120.2491703 C-47.26039374 114.40044025 -45.49940248 108.55235822 -43.73413086 102.70556641 C-43.42261581 101.67348053 -43.11110077 100.64139465 -42.79014587 99.57803345 C-42.21791788 97.71100743 -41.61751365 95.85254094 -41 94 C-41.96550781 93.8040625 -42.93101563 93.608125 -43.92578125 93.40625 C-61.01383729 89.89080718 -78.00067472 85.91732879 -95 82 C-95 79 -95 79 -93.19921875 77.0546875 C-91.95591797 75.97574219 -91.95591797 75.97574219 -90.6875 74.875 C-89.76839844 74.07449219 -88.84929687 73.27398437 -87.90234375 72.44921875 C-84.29673529 69.40653167 -80.65162315 66.41720348 -76.984375 63.44921875 C-73.61238761 60.68189402 -70.3033143 57.84856535 -67 55 C-62.89773502 51.46385091 -58.77197907 47.97136492 -54.5625 44.5625 C-50.12760683 40.96363971 -45.80432214 37.25267936 -41.5 33.5 C-36.34912068 29.00925841 -31.13450161 24.62251476 -25.82421875 20.3203125 C-21.27512209 16.58288039 -16.82052479 12.73613113 -12.359375 8.89453125 C-11.81345703 8.42611816 -11.26753906 7.95770508 -10.70507812 7.47509766 C-9.49287796 6.42639871 -8.28930795 5.36768776 -7.09179688 4.30224609 C-6.1569043 3.47781006 -6.1569043 3.47781006 -5.203125 2.63671875 C-4.63754883 2.13229248 -4.07197266 1.62786621 -3.48925781 1.1081543 C-2 0 -2 0 0 0 Z " fill="#4E39F4" transform="translate(109,11)"/>
<path d="M0 0 C8.25 0 16.5 0 25 0 C29.49951615 11.24879038 29.49951615 11.24879038 30.88427734 15.27392578 C31.19970993 16.18670792 31.51514252 17.09949005 31.84013367 18.03993225 C32.33305656 19.47809547 32.33305656 19.47809547 32.8359375 20.9453125 C33.19166336 21.97639633 33.54738922 23.00748016 33.91389465 24.06980896 C34.67470238 26.27568427 35.43444579 28.48192691 36.19320679 30.68850708 C38.21094565 36.55581555 40.23687703 42.42029607 42.26171875 48.28515625 C42.87020409 50.04861641 42.87020409 50.04861641 43.49098206 51.84770203 C47.02862169 62.09578607 50.60006368 72.33176008 54.1875 82.5625 C54.74159048 84.14418681 55.29562702 85.72589251 55.84960938 87.30761719 C58.24912048 94.15735114 60.65072468 101.00634524 63.05615234 107.85400391 C64.82308108 112.88440339 66.58693944 117.91587121 68.34902954 122.94796753 C69.02884452 124.88743907 69.70979977 126.82651133 70.39193726 128.76516724 C71.3344341 131.44402486 72.27312117 134.12418841 73.2109375 136.8046875 C73.49454636 137.60779861 73.77815521 138.41090973 74.07035828 139.23835754 C76 144.77207951 76 144.77207951 76 147 C69.4 147 62.8 147 56 147 C51.71 134.13 47.42 121.26 43 108 C22.87 108 2.74 108 -18 108 C-22.29 120.87 -26.58 133.74 -31 147 C-37.6 147 -44.2 147 -51 147 C-44.98350415 128.55138374 -38.63906356 110.23628614 -32.1257019 91.95776367 C-24.78085874 71.33345902 -17.64208036 50.64063829 -10.54436207 29.93031979 C-9.87964577 27.9909975 -9.21453524 26.05181083 -8.54933167 24.11265564 C-7.73427449 21.7358126 -6.92026854 19.35860871 -6.10752869 16.98097229 C-5.74156082 15.91346237 -5.37559296 14.84595245 -4.99853516 13.74609375 C-4.52584702 12.36442017 -4.52584702 12.36442017 -4.04360962 10.95483398 C-2.7473273 7.28459276 -1.36672374 3.64459664 0 0 Z M12 19 C9.08558401 26.07217506 6.4816352 33.21215276 4.03125 40.45703125 C3.66906372 41.52185226 3.30687744 42.58667328 2.93371582 43.6837616 C2.17277658 45.92293046 1.41315187 48.16254645 0.65478516 50.40258789 C-0.49362062 53.79366264 -1.64687307 57.18305981 -2.80078125 60.57226562 C-3.54456056 62.76292249 -4.28805926 64.95367464 -5.03125 67.14453125 C-5.36991089 68.13975296 -5.70857178 69.13497467 -6.05749512 70.16035461 C-8.50745806 77.40808622 -10.74776355 84.68023155 -13 92 C3.83 92 20.66 92 38 92 C35.5453264 82.95208163 35.5453264 82.95208163 32.73168945 74.05981445 C32.31148026 72.81935867 31.89127106 71.57890289 31.45832825 70.30085754 C31.01005084 68.98830766 30.5617002 67.67578278 30.11328125 66.36328125 C29.64645685 64.98904499 29.17992463 63.61470944 28.71366882 62.24028015 C27.49841216 58.66047766 26.27924794 55.08201852 25.0592041 51.50384521 C23.80984618 47.83736676 22.56427262 44.16960323 21.31835938 40.50195312 C18.88256286 33.33338795 16.44262782 26.16624074 14 19 C13.34 19 12.68 19 12 19 Z " fill="#4E39F2" transform="translate(220,7)"/>
<path d="M0 0 C7.92 0 15.84 0 24 0 C28.49960145 10.12410326 28.49960145 10.12410326 30.06787109 14.71118164 C30.42332504 15.74410339 30.77877899 16.77702515 31.14500427 17.84124756 C31.51738724 18.93648743 31.8897702 20.03172729 32.2734375 21.16015625 C32.87388634 22.90948456 32.87388634 22.90948456 33.48646545 24.69415283 C34.34232318 27.18880382 35.19677953 29.68388048 36.04879761 32.17984009 C37.39028477 36.10924943 38.73753736 40.03666519 40.08618164 43.96362305 C40.42351869 44.94590236 40.42351869 44.94590236 40.76767063 45.9480257 C41.2214552 47.26931555 41.67526331 48.59059732 42.12909508 49.91187096 C42.80832474 51.88984162 43.48707138 53.8679775 44.16572571 55.84614563 C47.8842172 66.68193187 51.64587566 77.50211348 55.4375 88.3125 C55.988949 89.88703842 56.54038144 91.46158264 57.09179688 93.03613281 C59.64703385 100.32681643 62.21488085 107.61289707 64.79902649 114.89338684 C66.03166534 118.36732445 67.26114386 121.84237714 68.49050903 125.31747437 C69.35393026 127.7530652 70.22261757 130.18673335 71.09155273 132.62036133 C71.61077265 134.08665985 72.12974831 135.5530449 72.6484375 137.01953125 C72.88827866 137.68617798 73.12811981 138.35282471 73.37522888 139.03967285 C74.36184289 141.84447324 75 143.99976753 75 147 C68.73 147 62.46 147 56 147 C52.75015166 139.12135392 49.93808353 131.14864051 47.25 123.0625 C46.63318359 121.2362207 46.63318359 121.2362207 46.00390625 119.37304688 C45.61589844 118.20966797 45.22789062 117.04628906 44.828125 115.84765625 C44.4765332 114.79586182 44.12494141 113.74406738 43.76269531 112.66040039 C43 110 43 110 43 107 C22.54 107 2.08 107 -19 107 C-19.99 110.63 -20.98 114.26 -22 118 C-22.79868482 120.48188791 -23.62264269 122.95589655 -24.48046875 125.41796875 C-24.69818436 126.04608963 -24.91589996 126.67421051 -25.14021301 127.32136536 C-25.81924585 129.27794492 -26.50324912 131.23274004 -27.1875 133.1875 C-27.65593369 134.53438884 -28.12403477 135.88139341 -28.59179688 137.22851562 C-29.7234409 140.48724983 -30.86183024 143.74351054 -32 147 C-38.27 147 -44.54 147 -51 147 C-48.749997 136.87498649 -48.749997 136.87498649 -47.43457031 133.11499023 C-47.13900238 132.26217972 -46.84343445 131.4093692 -46.53890991 130.53071594 C-46.22185089 129.63241562 -45.90479187 128.7341153 -45.578125 127.80859375 C-45.07365341 126.35993172 -45.07365341 126.35993172 -44.55899048 124.88200378 C-43.46078705 121.73213855 -42.35545453 118.58482694 -41.25 115.4375 C-40.47758389 113.22655461 -39.70561677 111.01545232 -38.93408203 108.80419922 C-36.99061655 103.2378614 -35.04139435 97.67356043 -33.09020996 92.10992432 C-31.48696567 87.53652233 -29.88795747 82.9616427 -28.2890625 78.38671875 C-26.59338618 73.53572322 -24.89665705 68.68510688 -23.19506836 63.83618164 C-20.43181352 55.96060309 -17.67838908 48.08184429 -14.94854736 40.1946106 C-13.5724351 36.21868901 -12.1935631 32.2437263 -10.8147583 28.26873779 C-10.15324606 26.35880801 -9.49318141 24.44837615 -8.83465576 22.53741455 C-7.92076015 19.88564409 -7.00189173 17.23564366 -6.08203125 14.5859375 C-5.81390121 13.80345642 -5.54577118 13.02097534 -5.26951599 12.21478271 C-5.01404495 11.48180969 -4.75857391 10.74883667 -4.49536133 9.99365234 C-4.1689843 9.04877457 -4.1689843 9.04877457 -3.83601379 8.08480835 C-2.7258005 5.31621533 -1.33399257 2.66798514 0 0 Z M11 19 C8.12871078 25.94529631 5.59621622 32.95150925 3.25 40.08984375 C2.91000977 41.11501602 2.57001953 42.14018829 2.21972656 43.19642639 C1.14358498 46.44249964 0.07149593 49.68989061 -1 52.9375 C-2.07201538 56.18136242 -3.14495744 59.42491082 -4.21972656 62.66786194 C-4.88485644 64.67529916 -5.54838445 66.68326818 -6.20996094 68.69187927 C-8.09363137 74.38294699 -10.09605132 80.00529339 -12.25683594 85.59767151 C-13.19702237 88.21777956 -13.19702237 88.21777956 -13 92 C3.5 92 20 92 37 92 C36.18739121 87.93695605 35.18850134 84.3177587 33.8828125 80.40551758 C33.56313507 79.44363777 33.56313507 79.44363777 33.23699951 78.46232605 C32.53592241 76.35540753 31.83055389 74.24995441 31.125 72.14453125 C30.63536046 70.67680541 30.14594314 69.20900542 29.65673828 67.74113464 C28.63304204 64.6716071 27.60733851 61.60276038 26.58007812 58.53442383 C25.26216458 54.59771288 23.94822881 50.65968883 22.63565063 46.72119617 C21.62629968 43.69341488 20.61538753 40.66615679 19.60394287 37.63907433 C19.11875413 36.18669339 18.63393034 34.73419048 18.1494751 33.28156471 C17.47355511 31.25596746 16.79566551 29.23104047 16.1171875 27.20629883 C15.73159668 26.05333817 15.34600586 24.9003775 14.94873047 23.71247864 C14.09114546 21.07659137 14.09114546 21.07659137 13 19 C12.34 19 11.68 19 11 19 Z " fill="#4E39F0" transform="translate(666,7)"/>
<path d="M0 0 C56 0 56 0 65 1 C65 1.33 65 1.66 65 2 C44.21 2 23.42 2 2 2 C2 49.52 2 97.04 2 146 C22.13 146 42.26 146 63 146 C63 146.33 63 146.66 63 147 C42.21 147 21.42 147 0 147 C0 98.49 0 49.98 0 0 Z " fill="#5040CD" transform="translate(323,7)"/>
<path d="M0 0 C5.74776111 0.09369487 11.49510897 0.19982503 17.24243164 0.31738281 C19.19679509 0.35561789 21.15122759 0.39048027 23.10571289 0.421875 C25.91838222 0.46764435 28.73057839 0.52561923 31.54296875 0.5859375 C32.41398727 0.59748871 33.2850058 0.60903992 34.18241882 0.62094116 C38.54801595 0.72666438 42.02561628 0.97189014 46 3 C46 3.33 46 3.66 46 4 C30.82 3.67 15.64 3.34 0 3 C0 41.28 0 79.56 0 119 C14.52 118.67 29.04 118.34 44 118 C44 118.33 44 118.66 44 119 C34.01176719 120.78492524 24.76323415 121.14120337 14.625 120.625 C13.29171814 120.56652273 11.95838395 120.50922628 10.625 120.453125 C7.41596038 120.31360154 4.20794803 120.16241962 1 120 C0.67 120.99 0.34 121.98 0 123 C-1.8075424 119.89436643 -2.24818576 117.65456565 -2.24050903 114.07720947 C-2.24325836 113.08725479 -2.24600769 112.09730011 -2.24884033 111.0773468 C-2.24164978 109.9976915 -2.23445923 108.91803619 -2.22705078 107.80566406 C-2.22734283 106.6639122 -2.22763489 105.52216034 -2.22793579 104.34580994 C-2.22654159 100.56900453 -2.21097587 96.79239598 -2.1953125 93.015625 C-2.1915827 90.39817411 -2.18873557 87.78072183 -2.18673706 85.16326904 C-2.18052306 78.9761988 -2.16411334 72.78919931 -2.14403808 66.60216022 C-2.12167658 59.55747144 -2.11068502 52.51277927 -2.10064721 45.46806383 C-2.07974703 30.97867274 -2.0445726 16.48933736 -2 2 C-1.34 2 -0.68 2 0 2 C0 1.34 0 0.68 0 0 Z " fill="#5342E9" transform="translate(341,20)"/>
<path d="M0 0 C21.45 0.33 42.9 0.66 65 1 C67.59280862 8.1302237 69.94004533 14.99192151 71.97265625 22.25 C72.99361759 24.98291552 73.8474912 26.12315309 76 28 C76.875 30 76.875 30 77 32 C76.01 32.99 75.02 33.98 74 35 C70.37 24.44 66.74 13.88 63 3 C42.87 3 22.74 3 2 3 C1.34 4.98 0.68 6.96 0 9 C-0.33 9 -0.66 9 -1 9 C-1.125 2.25 -1.125 2.25 0 0 Z " fill="#4A3ADC" transform="translate(200,112)"/>
<path d="M0 0 C1.43791516 0.14168137 2.8753237 0.28851043 4.3125 0.4375 C5.11300781 0.51871094 5.91351563 0.59992188 6.73828125 0.68359375 C9 1 9 1 12 2 C10.40526038 6.46527093 6.93096666 8.85507843 3.375 11.75 C2.76398438 12.25660156 2.15296875 12.76320313 1.5234375 13.28515625 C0.02070947 14.5296029 -1.48897467 15.76564128 -3 17 C-3 13.61976483 -2.12544378 11.16531063 -1 8 C-1.99 8.33 -2.98 8.66 -4 9 C-4 7.02 -4 5.04 -4 3 C-2.68 2.67 -1.36 2.34 0 2 C0 1.34 0 0.68 0 0 Z " fill="#4D38F5" transform="translate(133,91)"/>
<path d="M0 0 C0.33 0 0.66 0 1 0 C1.12375 0.804375 1.2475 1.60875 1.375 2.4375 C1.684375 3.7059375 1.684375 3.7059375 2 5 C2.66 5.33 3.32 5.66 4 6 C3.67 5.01 3.34 4.02 3 3 C3.99 2.67 4.98 2.34 6 2 C6.33 2.66 6.66 3.32 7 4 C6.67 4.99 6.34 5.98 6 7 C9.27773504 6.24849977 9.27773504 6.24849977 11 3 C11.99 3.33 12.98 3.66 14 4 C-2.36893204 19 -2.36893204 19 -5 19 C-3.64746536 12.54945018 -1.96939767 6.28894321 0 0 Z " fill="#4D37F4" transform="translate(52,158)"/>
<path d="M0 0 C1.26122286 4.72958571 1.83806393 8.39371079 -0.5 12.875 C-0.995 13.57625 -1.49 14.2775 -2 15 C-1.34 15 -0.68 15 0 15 C0.94467607 17.55062538 1.02758299 18.88690973 0.375 21.5625 C-1.31168355 24.55252992 -2.9290524 25.54129989 -6 27 C-6.66 27 -7.32 27 -8 27 C-7.938125 27.721875 -7.87625 28.44375 -7.8125 29.1875 C-8.03523932 32.52858974 -9.1282246 34.27032755 -11 37 C-12 35 -12 35 -11.01196289 31.56005859 C-10.5065927 30.08684313 -9.99289282 28.61646909 -9.47265625 27.1484375 C-9.07100502 25.98738998 -9.07100502 25.98738998 -8.66123962 24.80288696 C-7.80202124 22.32441628 -6.93239841 19.84973994 -6.0625 17.375 C-5.47913026 15.69815567 -4.89643907 14.02107511 -4.31445312 12.34375 C-2.88416962 8.22638134 -1.44454281 4.11238647 0 0 Z " fill="#4F3CE0" transform="translate(215,21)"/>
<path d="M0 0 C5.74776111 0.09369487 11.49510897 0.19982503 17.24243164 0.31738281 C19.19679509 0.35561789 21.15122759 0.39048027 23.10571289 0.421875 C25.91838222 0.46764435 28.73057839 0.52561923 31.54296875 0.5859375 C32.41398727 0.59748871 33.2850058 0.60903992 34.18241882 0.62094116 C38.54801595 0.72666438 42.02561628 0.97189014 46 3 C46 3.33 46 3.66 46 4 C31.15 3.67 16.3 3.34 1 3 C0.67 2.01 0.34 1.02 0 0 Z " fill="#4E3FCE" transform="translate(341,20)"/>
<path d="M0 0 C0.33 0 0.66 0 1 0 C1.08969945 3.85707628 0.87273136 7.24725515 0 11 C-0.12246094 11.71671875 -0.24492187 12.4334375 -0.37109375 13.171875 C-0.51675781 13.96078125 -0.66242188 14.7496875 -0.8125 15.5625 C-0.94269531 16.30628906 -1.07289063 17.05007812 -1.20703125 17.81640625 C-2 20 -2 20 -3.94140625 21.890625 C-6.48752228 24.49954845 -7.11617307 26.70747097 -8.125 30.1875 C-8.69675095 32.14137617 -9.31032817 34.08456689 -10 36 C-10.99 36.495 -10.99 36.495 -12 37 C-9.85879693 28.61282353 -7.18596986 20.47462092 -4.3125 12.3125 C-3.68891602 10.52682617 -3.68891602 10.52682617 -3.05273438 8.70507812 C-2.03847718 5.80220407 -1.02084668 2.90056187 0 0 Z " fill="#4F3ED6" transform="translate(200,64)"/>
<path d="M0 0 C5.75 1.75 5.75 1.75 8 4 C2.06 9.445 2.06 9.445 -4 15 C-4.66 14.67 -5.32 14.34 -6 14 C-5.525625 13.566875 -5.05125 13.13375 -4.5625 12.6875 C-2.76313043 10.97690387 -2.76313043 10.97690387 -2 8 C-1.67 7.67 -1.34 7.34 -1 7 C-1.99 6.34 -2.98 5.68 -4 5 C-2.68 3.35 -1.36 1.7 0 0 Z " fill="#4C38EC" transform="translate(72,146)"/>
<path d="M0 0 C-0.99 4.62 -1.98 9.24 -3 14 C-3.33 14 -3.66 14 -4 14 C-4 11.69 -4 9.38 -4 7 C-9.65253308 8.37031105 -12.5113541 12.67689413 -16 17 C-16.99 16.34 -17.98 15.68 -19 15 C-2.63106796 0 -2.63106796 0 0 0 Z " fill="#4D3ED1" transform="translate(109,11)"/>
<path d="M0 0 C3.85749869 3.85749869 4.93717012 9.85964964 6.6875 14.9375 C7.11611328 16.14341797 7.54472656 17.34933594 7.98632812 18.59179688 C8.38658203 19.74615234 8.78683594 20.90050781 9.19921875 22.08984375 C9.56877686 23.15066162 9.93833496 24.21147949 10.3190918 25.30444336 C11 28 11 28 10 31 C9.67 29.35 9.34 27.7 9 26 C8.01 25.67 7.02 25.34 6 25 C5.67 22.69 5.34 20.38 5 18 C3.35 17.67 1.7 17.34 0 17 C0.66 16.34 1.32 15.68 2 15 C2.38070879 10.71702615 1.64543546 7.90790921 0 4 C0 2.68 0 1.36 0 0 Z " fill="#5040D6" transform="translate(728,117)"/>
<path d="M0 0 C4.04676199 2.69784133 4.38503974 5.90287963 5.5625 10.375 C5.97697936 11.90459564 6.39484627 13.43327813 6.81640625 14.9609375 C7.08626343 15.97873291 7.08626343 15.97873291 7.36157227 17.01708984 C8.05326127 19.16542563 8.8663416 21.04763219 10 23 C10.66 23.33 11.32 23.66 12 24 C12.8125 25.875 12.8125 25.875 13 28 C11.51171875 29.6328125 11.51171875 29.6328125 10 31 C8.57191631 26.90793253 7.14785715 22.81449396 5.72753906 18.71972656 C5.24362265 17.32643703 4.7586014 15.93353072 4.27246094 14.54101562 C3.57457494 12.5413586 2.8806516 10.54036477 2.1875 8.5390625 C1.76855469 7.33459473 1.34960938 6.13012695 0.91796875 4.88916016 C0 2 0 2 0 0 Z " fill="#4F42C9" transform="translate(264,116)"/>
<path d="M0 0 C0.33 0.66 0.66 1.32 1 2 C4.3 1.34 7.6 0.68 11 0 C3.74591973 5.4405602 -4.94886984 8.46758058 -14 9 C-14 8.34 -14 7.68 -14 7 C-13.28972656 6.87882813 -12.57945312 6.75765625 -11.84765625 6.6328125 C-10.92855469 6.46523437 -10.00945313 6.29765625 -9.0625 6.125 C-8.14597656 5.96257812 -7.22945312 5.80015625 -6.28515625 5.6328125 C-5.53105469 5.42398438 -4.77695312 5.21515625 -4 5 C-3.67 4.34 -3.34 3.68 -3 3 C-2.01979625 1.9805881 -1.02196992 0.97753644 0 0 Z " fill="#4D3DD4" transform="translate(558,144)"/>
<path d="M0 0 C2.12261076 2.12261076 2.58711498 3.26899902 3.5078125 6.0625 C3.77207031 6.85914063 4.03632813 7.65578125 4.30859375 8.4765625 C4.57800781 9.30929688 4.84742188 10.14203125 5.125 11 C5.54072266 12.24910156 5.54072266 12.24910156 5.96484375 13.5234375 C8 19.71913485 8 19.71913485 8 22 C1.4 22 -5.2 22 -12 22 C-12 21.67 -12 21.34 -12 21 C-6.39 21 -0.78 21 5 21 C3.6993492 15.79739681 2.39393559 11.05459499 0.5859375 6.078125 C0 4 0 4 0 0 Z " fill="#4837CD" transform="translate(288,132)"/>
<path d="M0 0 C1.24142712 4.96570849 0.37261666 7.15547062 -1 12 C-0.34 12.33 0.32 12.66 1 13 C0.01 14.485 0.01 14.485 -1 16 C2.63 16.33 6.26 16.66 10 17 C10 17.33 10 17.66 10 18 C4.72 18 -0.56 18 -6 18 C-4.02 12.06 -2.04 6.12 0 0 Z " fill="#4736D3" transform="translate(175,136)"/>
<path d="M0 0 C0.66 0.33 1.32 0.66 2 1 C1.175 1.886875 0.35 2.77375 -0.5 3.6875 C-2.46099476 6.01307407 -2.97259478 6.74787194 -3.3125 9.875 C-3.209375 10.57625 -3.10625 11.2775 -3 12 C-1.35 12 0.3 12 2 12 C2 12.66 2 13.32 2 14 C-3.94 13.01 -3.94 13.01 -10 12 C-10 9 -10 9 -7.8125 6.73828125 C-6.884375 5.93777344 -5.95625 5.13726562 -5 4.3125 C-4.071875 3.50425781 -3.14375 2.69601563 -2.1875 1.86328125 C-1.1046875 0.94095703 -1.1046875 0.94095703 0 0 Z " fill="#4B3BD5" transform="translate(24,81)"/>
<path d="M0 0 C0.66 0 1.32 0 2 0 C0.68764148 6.36430174 -1.01219415 12.42121028 -3.125 18.5625 C-3.40214844 19.38041016 -3.67929688 20.19832031 -3.96484375 21.04101562 C-4.63905137 23.02876568 -5.31892204 25.01459349 -6 27 C-6.99 26.67 -7.98 26.34 -9 26 C-8.01 23.36 -7.02 20.72 -6 18 C-6.66 17.67 -7.32 17.34 -8 17 C-6.68 16.67 -5.36 16.34 -4 16 C-3.34 12.37 -2.68 8.74 -2 5 C-1.34 5 -0.68 5 0 5 C0 3.35 0 1.7 0 0 Z " fill="#4B3BD1" transform="translate(195,127)"/>
<path d="M0 0 C1.28826661 3.86479984 0.43958402 5.37491237 -0.87109375 9.19921875 C-1.48500977 11.01196289 -1.48500977 11.01196289 -2.11132812 12.86132812 C-2.55319189 14.13678581 -2.99525171 15.41217559 -3.4375 16.6875 C-3.87647475 17.97432868 -4.31463577 19.26143525 -4.75195312 20.54882812 C-5.82664643 23.70204915 -6.90962616 26.85217387 -8 30 C-8.33 30 -8.66 30 -9 30 C-8.37968409 23.42465139 -6.85102717 17.33307408 -5 11 C-4.34 11 -3.68 11 -3 11 C-3.33 8.36 -3.66 5.72 -4 3 C-3.01 2.67 -2.02 2.34 -1 2 C-0.67 1.34 -0.34 0.68 0 0 Z " fill="#4D3DD4" transform="translate(668,48)"/>
<path d="M0 0 C9.9 0 19.8 0 30 0 C27.17795817 2.82204183 24.29062256 2.49265491 20.5 2.6875 C19.81035156 2.73455078 19.12070312 2.78160156 18.41015625 2.83007812 C13.27121897 3.13560948 13.27121897 3.13560948 11 2 C9.12943209 1.7724985 7.25314042 1.59037189 5.375 1.4375 C4.37210937 1.35371094 3.36921875 1.26992187 2.3359375 1.18359375 C1.56507813 1.12300781 0.79421875 1.06242188 0 1 C0 0.67 0 0.34 0 0 Z " fill="#5042E7" transform="translate(501,139)"/>
<path d="M0 0 C8.44419541 2.00834918 16.72831339 4.37173829 25 7 C22.02538506 7.91372701 19.92552753 7.98845079 16.875 7.4375 C15.59625 7.293125 14.3175 7.14875 13 7 C12.34 7.66 11.68 8.32 11 9 C10.01 9 9.02 9 8 9 C8.66 7.68 9.32 6.36 10 5 C8.68 5 7.36 5 6 5 C5.34 4.67 4.68 4.34 4 4 C4 3.34 4 2.68 4 2 C2.68 1.67 1.36 1.34 0 1 C0 0.67 0 0.34 0 0 Z " fill="#4C3BD9" transform="translate(96,79)"/>
<path d="M0 0 C1 2 1 2 0.56274414 3.87939453 C0.30614014 4.62302246 0.04953613 5.36665039 -0.21484375 6.1328125 C-0.48876953 6.93847656 -0.76269531 7.74414062 -1.04492188 8.57421875 C-1.48674805 9.83685547 -1.48674805 9.83685547 -1.9375 11.125 C-2.22818359 11.97449219 -2.51886719 12.82398438 -2.81835938 13.69921875 C-3.53893001 15.80186749 -4.26638315 17.90187477 -5 20 C-5.94833208 16.57711389 -6 13.55019259 -6 10 C-6.33 9.34 -6.66 8.68 -7 8 C-6.0625 5.875 -6.0625 5.875 -5 4 C-4.01 4 -3.02 4 -2 4 C-2 3.01 -2 2.02 -2 1 C-1.34 0.67 -0.68 0.34 0 0 Z " fill="#4E3CDE" transform="translate(224,45)"/>
<path d="M0 0 C2.75 0.25 2.75 0.25 5 1 C1.87072688 5.25581144 -1.70277393 8.9199685 -6 12 C-6.66 12 -7.32 12 -8 12 C-7.67 10.68 -7.34 9.36 -7 8 C-5.68 7.67 -4.36 7.34 -3 7 C-3.33 6.01 -3.66 5.02 -4 4 C-2.3125 1.9375 -2.3125 1.9375 0 0 Z " fill="#4A37DD" transform="translate(94,132)"/>
<path d="M0 0 C2.00993705 3.01490557 2.72623341 5.2149927 3.625 8.6875 C3.88539063 9.68136719 4.14578125 10.67523438 4.4140625 11.69921875 C4.60742188 12.45847656 4.80078125 13.21773437 5 14 C3.02 14.99 1.04 15.98 -1 17 C-3 15 -3 15 -3.125 12.375 C-3.08375 11.59125 -3.0425 10.8075 -3 10 C-0.525 10.99 -0.525 10.99 2 12 C1.67 10.7625 1.34 9.525 1 8.25 C0.20108841 5.25408155 0 3.19892281 0 0 Z " fill="#4E3CDE" transform="translate(267,71)"/>
<path d="M0 0 C2.72863567 2.72863567 3.47085394 5.91006895 4.625 9.5 C4.85445312 10.18964844 5.08390625 10.87929687 5.3203125 11.58984375 C7 16.71888951 7 16.71888951 7 19 C6.34 19 5.68 19 5 19 C5 18.01 5 17.02 5 16 C2.525 15.01 2.525 15.01 0 14 C0.33 13.34 0.66 12.68 1 12 C1.28143104 7.77853434 0.80098121 4.82708507 -1 1 C-0.67 0.67 -0.34 0.34 0 0 Z " fill="#4F3DD6" transform="translate(706,54)"/>
<path d="M0 0 C1.32 0.33 2.64 0.66 4 1 C3.01 1.495 3.01 1.495 2 2 C1.16245004 3.72494642 1.16245004 3.72494642 0.4921875 5.81640625 C0.22792969 6.58017578 -0.03632813 7.34394531 -0.30859375 8.13085938 C-0.57800781 8.93330078 -0.84742188 9.73574219 -1.125 10.5625 C-1.54072266 11.77196289 -1.54072266 11.77196289 -1.96484375 13.00585938 C-2.6497948 15.00166501 -3.32574416 17.00055579 -4 19 C-5.125 15.25 -5.125 15.25 -4 13 C-3.75212983 8.85496339 -3.75212983 8.85496339 -5 5 C-4.34 5 -3.68 5 -3 5 C-2.67 4.34 -2.34 3.68 -2 3 C-1.34 3.33 -0.68 3.66 0 4 C0 2.68 0 1.36 0 0 Z " fill="#4937D6" transform="translate(230,25)"/>
<path d="M0 0 C2.62113708 0 4.50935112 0.31292445 7 1 C5.38050958 2.50594681 3.75424026 4.00460668 2.125 5.5 C0.76761719 6.75296875 0.76761719 6.75296875 -0.6171875 8.03125 C-3 10 -3 10 -5 10 C-5 9.34 -5 8.68 -5 8 C-4.34 8 -3.68 8 -3 8 C-2.87625 7.05125 -2.7525 6.1025 -2.625 5.125 C-2 2 -2 2 0 0 Z " fill="#4A37DC" transform="translate(105,122)"/>
<path d="M0 0 C0.99 0.33 1.98 0.66 3 1 C3 1.33 3 1.66 3 2 C5.97 2.495 5.97 2.495 9 3 C9 3.66 9 4.32 9 5 C9.66 5.33 10.32 5.66 11 6 C3.84404654 5.29843593 -3.01855181 3.69214979 -10 2 C-10 1.67 -10 1.34 -10 1 C-7.98177083 1.03255208 -5.96354167 1.06510417 -3.9453125 1.09765625 C-1.91814596 1.12649242 -1.91814596 1.12649242 0 0 Z " fill="#4D3DD8" transform="translate(46,96)"/>
<path d="M0 0 C0.99 0 1.98 0 3 0 C4.6875 2 4.6875 2 6 4 C5.34 4 4.68 4 4 4 C3.896875 4.598125 3.79375 5.19625 3.6875 5.8125 C2.91123545 8.28243264 1.92911079 9.32251235 0 11 C0.50603992 8.83125748 0.99983813 7.00032373 2 5 C1.34 5 0.68 5 0 5 C-0.66 6.98 -1.32 8.96 -2 11 C-3.13643966 7.59068103 -2.86747764 6.99664544 -1.5625 3.8125 C-1.13130859 2.73935547 -1.13130859 2.73935547 -0.69140625 1.64453125 C-0.46324219 1.10183594 -0.23507812 0.55914063 0 0 Z " fill="#503CE4" transform="translate(658,28)"/>
<path d="M0 0 C1.18684632 4.41223507 0.80105422 7.48496711 0 12 C-0.66 12.66 -1.32 13.32 -2 14 C-2.7013284 16.32315031 -3.36485174 18.65789079 -4 21 C-4.64199649 22.67632417 -5.29894157 24.34750513 -6 26 C-7.19997482 22.40007555 -6.68836502 21.23849244 -5.56640625 17.67578125 C-5.24736328 16.64775391 -4.92832031 15.61972656 -4.59960938 14.56054688 C-4.25736328 13.48869141 -3.91511719 12.41683594 -3.5625 11.3125 C-3.22412109 10.22904297 -2.88574219 9.14558594 -2.53710938 8.02929688 C-1.69918895 5.35031186 -0.85320898 2.6741474 0 0 Z " fill="#4E3DD4" transform="translate(64,118)"/>
<path d="M0 0 C0.33 0.99 0.66 1.98 1 3 C1.66 3.33 2.32 3.66 3 4 C1.92456217 4.98783194 0.83926783 5.96493943 -0.25 6.9375 C-1.15492188 7.75541016 -1.15492188 7.75541016 -2.078125 8.58984375 C-4.08467305 10.06212799 -5.57002449 10.57529189 -8 11 C-8.33 9.68 -8.66 8.36 -9 7 C-7.35 7 -5.7 7 -4 7 C-4 6.34 -4 5.68 -4 5 C-2.68 5 -1.36 5 0 5 C0 4.34 0 3.68 0 3 C-0.66 2.67 -1.32 2.34 -2 2 C-1.34 1.34 -0.68 0.68 0 0 Z " fill="#4B39DD" transform="translate(419,134)"/>
<path d="M0 0 C0 4.38968456 -2.12805101 5.76905739 -5 9 C-4.01 9.33 -3.02 9.66 -2 10 C-2.99 10.99 -3.98 11.98 -5 13 C-5.99 12.34 -6.98 11.68 -8 11 C-10.11280345 10.36707617 -10.11280345 10.36707617 -12 10 C-11.46890625 9.61328125 -10.9378125 9.2265625 -10.390625 8.828125 C-6.67177773 6.08649307 -3.14670262 3.40892784 0 0 Z " fill="#4C3CD5" transform="translate(568,122)"/>
<path d="M0 0 C0.33 0 0.66 0 1 0 C0.35812082 5.13503344 -0.68272247 9.9943454 -2 15 C-1.34 15.33 -0.68 15.66 0 16 C-1.375 17.5 -1.375 17.5 -3 19 C-3.66 19 -4.32 19 -5 19 C-3.64746536 12.54945018 -1.96939767 6.28894321 0 0 Z " fill="#4C3EC5" transform="translate(52,158)"/>
<path d="M0 0 C1.32 0 2.64 0 4 0 C0.92482916 11.52164009 0.92482916 11.52164009 -1 17 C-2.18771723 13.57056481 -1.80226223 11.62215325 -0.5625 8.25 C-0.27503906 7.45078125 0.01242187 6.6515625 0.30859375 5.828125 C0.53675781 5.22484375 0.76492188 4.6215625 1 4 C0.01 3.67 -0.98 3.34 -2 3 C-1.34 2.01 -0.68 1.02 0 0 Z " fill="#4F3DDD" transform="translate(643,114)"/>
<path d="M0 0 C4.95 0.99 4.95 0.99 10 2 C8.12803847 5.74392306 7.59931881 6.60045413 4.375 8.75 C3.42753906 9.39195313 3.42753906 9.39195313 2.4609375 10.046875 C1.97882813 10.36140625 1.49671875 10.6759375 1 11 C1 9.68 1 8.36 1 7 C2.65 6.67 4.3 6.34 6 6 C5.67 4.68 5.34 3.36 5 2 C3.35 1.67 1.7 1.34 0 1 C0 0.67 0 0.34 0 0 Z " fill="#4B3DCA" transform="translate(135,91)"/>
<path d="M0 0 C1.32 0.33 2.64 0.66 4 1 C2.23436021 2.65172755 0.46295402 4.29638045 -1.3125 5.9375 C-2.06176758 6.64036133 -2.06176758 6.64036133 -2.82617188 7.35742188 C-5.21561016 9.55697103 -6.88080438 10.96026813 -10 12 C-9.6875 10.0625 -9.6875 10.0625 -9 8 C-8.01 7.67 -7.02 7.34 -6 7 C-6 6.01 -6 5.02 -6 4 C-4.35 3.67 -2.7 3.34 -1 3 C-0.67 2.01 -0.34 1.02 0 0 Z " fill="#4836D0" transform="translate(62,161)"/>
<path d="M0 0 C-6.05473373 2.57886807 -11.44074057 3.61020794 -18 4 C-17.67 3.34 -17.34 2.68 -17 2 C-13.9453125 1.11328125 -13.9453125 1.11328125 -10.125 0.3125 C-8.86945313 0.04050781 -7.61390625 -0.23148438 -6.3203125 -0.51171875 C-3 -1 -3 -1 0 0 Z " fill="#4838D5" transform="translate(404,149)"/>
<path d="M0 0 C2.24226443 3.36339665 3.42592747 6.76340552 4.6875 10.5625 C4.92533203 11.24763672 5.16316406 11.93277344 5.40820312 12.63867188 C5.99980093 14.40652572 6.5063209 16.20234149 7 18 C6.67 18.66 6.34 19.32 6 20 C3.59185923 16.48812804 2.63370592 14.27343092 3 10 C2.01 9.67 1.02 9.34 0 9 C0 6.03 0 3.06 0 0 Z " fill="#5342CE" transform="translate(714,76)"/>
<path d="M0 0 C1.18414294 3.55242882 0.69535532 4.69830562 -0.4375 8.1875 C-0.72496094 9.08855469 -1.01242188 9.98960938 -1.30859375 10.91796875 C-1.53675781 11.60503906 -1.76492187 12.29210937 -2 13 C-2.33 11.68 -2.66 10.36 -3 9 C-3.66 9 -4.32 9 -5 9 C-5 9.66 -5 10.32 -5 11 C-5.99 10.67 -6.98 10.34 -8 10 C-7.34 8.35 -6.68 6.7 -6 5 C-5.34 5 -4.68 5 -4 5 C-3.67 5.66 -3.34 6.32 -3 7 C-2.01 4.69 -1.02 2.38 0 0 Z " fill="#4E3CDB" transform="translate(94,65)"/>
<path d="M0 0 C-0.3125 1.9375 -0.3125 1.9375 -1 4 C-1.99 4.33 -2.98 4.66 -4 5 C-5.38576923 6.62332967 -6.72641268 8.28724465 -8 10 C-9.32 9.67 -10.64 9.34 -12 9 C-10.38050958 7.49405319 -8.75424026 5.99539332 -7.125 4.5 C-6.22007813 3.6646875 -5.31515625 2.829375 -4.3828125 1.96875 C-2 0 -2 0 0 0 Z " fill="#4D3DD8" transform="translate(71,43)"/>
<path d="M0 0 C2.3515625 0.16796875 2.3515625 0.16796875 5 1 C6.3984375 3.36328125 6.3984375 3.36328125 7.375 6.3125 C7.71273437 7.27800781 8.05046875 8.24351563 8.3984375 9.23828125 C8.99924146 11.99651763 8.95574457 13.38721777 8 16 C7.75765625 15.43152344 7.5153125 14.86304688 7.265625 14.27734375 C5.11329354 9.31870319 2.76653562 4.64382765 0 0 Z " fill="#5040CD" transform="translate(567,38)"/>
<path d="M0 0 C0.66 0 1.32 0 2 0 C0.6744419 3.62276315 -0.94346955 6.63505348 -3.125 9.8125 C-3.66382813 10.60269531 -4.20265625 11.39289063 -4.7578125 12.20703125 C-5.37269531 13.09455078 -5.37269531 13.09455078 -6 14 C-6.33 12.68 -6.66 11.36 -7 10 C-6.34 9.67 -5.68 9.34 -5 9 C-4.34786708 6.97536745 -4.34786708 6.97536745 -4 5 C-3.34 5 -2.68 5 -2 5 C-2 4.01 -2 3.02 -2 2 C-1.34 2 -0.68 2 0 2 C0 1.34 0 0.68 0 0 Z " fill="#5043C9" transform="translate(589,119)"/>
<path d="M0 0 C1.67542976 0.28604898 3.34385343 0.61781233 5 1 C5.5625 2.9375 5.5625 2.9375 6 5 C5 6 5 6 2.4375 6.0625 C1.2309375 6.0315625 1.2309375 6.0315625 0 6 C-0.38218767 4.34385343 -0.71395102 2.67542976 -1 1 C-0.67 0.67 -0.34 0.34 0 0 Z " fill="#4F38F9" transform="translate(21,87)"/>
<path d="M0 0 C1.73030291 0.28484846 3.45920714 0.57819938 5.1875 0.875 C6.15042969 1.03742187 7.11335938 1.19984375 8.10546875 1.3671875 C10.91032604 1.98039517 13.37224747 2.85666343 16 4 C15.01 4.99 14.02 5.98 13 7 C11.68 6.34 10.36 5.68 9 5 C9 4.34 9 3.68 9 3 C6.03 2.67 3.06 2.34 0 2 C0 1.34 0 0.68 0 0 Z " fill="#4B3BDD" transform="translate(390,9)"/>
<path d="M0 0 C2 3 2 3 2 6 C2.66 6 3.32 6 4 6 C3.67 6.66 3.34 7.32 3 8 C2.01 7.67 1.02 7.34 0 7 C-1.32 8.32 -2.64 9.64 -4 11 C-3.5247412 9.35303396 -3.04468109 7.70745272 -2.5625 6.0625 C-2.29566406 5.14597656 -2.02882812 4.22945312 -1.75390625 3.28515625 C-1 1 -1 1 0 0 Z " fill="#4C3BDD" transform="translate(220,9)"/>
<path d="M0 0 C0.33 1.32 0.66 2.64 1 4 C1.37125 4.680625 1.7425 5.36125 2.125 6.0625 C3 8 3 8 2 11 C1.01 10.67 0.02 10.34 -1 10 C-1.99 10.495 -1.99 10.495 -3 11 C-2.01 7.37 -1.02 3.74 0 0 Z " fill="#513FDA" transform="translate(179,124)"/>
<path d="M0 0 C0.33 0 0.66 0 1 0 C2.04350941 6.95253862 2.46505172 11.7629069 -1 18 C-1.66 18 -2.32 18 -3 18 C-2.01 12.06 -1.02 6.12 0 0 Z " fill="#4F40D0" transform="translate(578,92)"/>
<path d="M0 0 C0.33 0 0.66 0 1 0 C1.7013076 6.59229145 -0.50397814 10.49376557 -4 16 C-5 14 -5 14 -4.00390625 10.7421875 C-3.53110016 9.4502948 -3.05028031 8.16131362 -2.5625 6.875 C-2.31951172 6.21628906 -2.07652344 5.55757813 -1.82617188 4.87890625 C-1.22421679 3.25008662 -0.61297588 1.62470425 0 0 Z " fill="#4C3DC8" transform="translate(634,97)"/>
<path d="M0 0 C0.66 0.33 1.32 0.66 2 1 C1.26086957 9.86956522 1.26086957 9.86956522 -2 13 C-2.66 13 -3.32 13 -4 13 C-3.52343588 11.20763933 -3.04366502 9.41613103 -2.5625 7.625 C-2.29566406 6.62726562 -2.02882813 5.62953125 -1.75390625 4.6015625 C-1 2 -1 2 0 0 Z " fill="#4A3BD0" transform="translate(649,54)"/>
<path d="M0 0 C3 1 3 1 3.984375 2.7421875 C4.23703125 3.44601563 4.4896875 4.14984375 4.75 4.875 C5.01296875 5.57367188 5.2759375 6.27234375 5.546875 6.9921875 C6 9 6 9 5 12 C4.67 10.35 4.34 8.7 4 7 C3.01 6.67 2.02 6.34 1 6 C0.67 4.02 0.34 2.04 0 0 Z " fill="#4939D9" transform="translate(733,136)"/>
<path d="M0 0 C2.67901932 2.31881505 3.66204403 4.31814468 4.6875 7.6875 C4.93886719 8.49574219 5.19023438 9.30398437 5.44921875 10.13671875 C5.63097656 10.75160156 5.81273437 11.36648437 6 12 C3 12 3 12 1 11 C1 10.34 1 9.68 1 9 C1.66 9 2.32 9 3 9 C2.505 8.2575 2.01 7.515 1.5 6.75 C0 4 0 4 0 0 Z " fill="#4E3CD2" transform="translate(587,36)"/>
<path d="M0 0 C1.32 0 2.64 0 4 0 C3.979375 0.99 3.95875 1.98 3.9375 3 C3.92918572 7.06568074 4.43531533 10.97662176 5 15 C3.25050228 12.37575342 2.34610019 10.44272784 1.375 7.5 C0.98441406 6.33984375 0.98441406 6.33984375 0.5859375 5.15625 C0 3 0 3 0 0 Z " fill="#4E3CDB" transform="translate(234,26)"/>
<path d="M0 0 C1.28497537 3.85492611 0.4052209 5.40346836 -0.9375 9.1875 C-1.31777344 10.27417969 -1.69804687 11.36085938 -2.08984375 12.48046875 C-2.39019531 13.31191406 -2.69054687 14.14335938 -3 15 C-3.33 15 -3.66 15 -4 15 C-4 12.36 -4 9.72 -4 7 C-3.34 7 -2.68 7 -2 7 C-2 5.35 -2 3.7 -2 2 C-1.34 2 -0.68 2 0 2 C0 1.34 0 0.68 0 0 Z " fill="#4F3ED0" transform="translate(217,65)"/>
<path d="M0 0 C1 3 1 3 1 7 C1.33 7.66 1.66 8.32 2 9 C1.34 9.66 0.68 10.32 0 11 C0 10.34 0 9.68 0 9 C-1.65 9.66 -3.3 10.32 -5 11 C-3.55049545 7.2089881 -1.84827434 3.6125362 0 0 Z " fill="#4F3FD1" transform="translate(574,111)"/>
<path d="M0 0 C0.33 0 0.66 0 1 0 C2.7610915 9.68600328 2.7610915 9.68600328 0.0625 13.625 C-0.618125 14.40875 -1.29875 15.1925 -2 16 C-3.26977059 12.19068824 -2.52074507 10.18381007 -1.5625 6.3125 C-1.27503906 5.13300781 -0.98757813 3.95351562 -0.69140625 2.73828125 C-0.46324219 1.83464844 -0.23507812 0.93101563 0 0 Z " fill="#4F40CE" transform="translate(422,96)"/>
<path d="M0 0 C0.66 0.33 1.32 0.66 2 1 C-0.97 4.96 -0.97 4.96 -4 9 C-4.33 8.01 -4.66 7.02 -5 6 C-5.66 5.67 -6.32 5.34 -7 5 C-6.030625 4.54625 -5.06125 4.0925 -4.0625 3.625 C-0.92920418 2.34213779 -0.92920418 2.34213779 0 0 Z " fill="#4C3BD6" transform="translate(431,124)"/>
<path d="M0 0 C1.25541557 3.76624671 0.37061958 5.37188934 -1 9 C-1.66 9 -2.32 9 -3 9 C-3.75 6.75 -3.75 6.75 -4 4 C-2.0625 1.6875 -2.0625 1.6875 0 0 Z " fill="#4E3BE0" transform="translate(654,89)"/>
<path d="M0 0 C2.46301423 2.46301423 2.76766521 4.27360036 3.625 7.625 C3.88539063 8.62789062 4.14578125 9.63078125 4.4140625 10.6640625 C4.60742188 11.43492188 4.80078125 12.20578125 5 13 C0.17970402 9.14376321 0.17970402 9.14376321 -0.33203125 5.88671875 C-0.3145776 3.92143786 -0.16596091 1.95833873 0 0 Z " fill="#503ECF" transform="translate(691,11)"/>
<path d="M0 0 C0.66 0.33 1.32 0.66 2 1 C2 1.66 2 2.32 2 3 C2.66 3.33 3.32 3.66 4 4 C1.69 5.65 -0.62 7.3 -3 9 C-2.01 6.03 -1.02 3.06 0 0 Z " fill="#4B38DA" transform="translate(132,99)"/>
<path d="M0 0 C0 3 0 3 -2.5 5.6875 C-3.325 6.450625 -4.15 7.21375 -5 8 C-5.66 7.34 -6.32 6.68 -7 6 C-4.69 4.02 -2.38 2.04 0 0 Z " fill="#4E3ADD" transform="translate(97,20)"/>
<path d="M0 0 C2.31 0.33 4.62 0.66 7 1 C5.02 3.97 5.02 3.97 3 7 C1.25372522 4.38058783 0.61277612 2.96175123 0 0 Z " fill="#513CEA" transform="translate(546,9)"/>
<path d="M0 0 C-3.96 3.465 -3.96 3.465 -8 7 C-8.66 6.67 -9.32 6.34 -10 6 C-9.525625 5.566875 -9.05125 5.13375 -8.5625 4.6875 C-6.76313043 2.97690387 -6.76313043 2.97690387 -6 0 C-3 -1 -3 -1 0 0 Z " fill="#4837D0" transform="translate(76,154)"/>
<path d="M0 0 C0.66 0 1.32 0 2 0 C2.103125 0.639375 2.20625 1.27875 2.3125 1.9375 C2.539375 2.618125 2.76625 3.29875 3 4 C3.99 4.33 4.98 4.66 6 5 C5.67 7.31 5.34 9.62 5 12 C2.91620491 8.15299368 1.50313376 4.09945571 0 0 Z " fill="#4D3CD6" transform="translate(416,44)"/>
<path d="M0 0 C0.99 0.33 1.98 0.66 3 1 C3.875 2.875 3.875 2.875 4 5 C2.5625 6.75 2.5625 6.75 1 8 C-0.35439668 5.29120665 -0.06501451 2.99066732 0 0 Z " fill="#4E3FD8" transform="translate(273,139)"/>
<path d="M0 0 C2.475 0.99 2.475 0.99 5 2 C5 2.99 5 3.98 5 5 C3.35 5.66 1.7 6.32 0 7 C0.185625 6.21625 0.37125 5.4325 0.5625 4.625 C1.25962266 2.02910225 1.25962266 2.02910225 0 0 Z " fill="#5141D8" transform="translate(570,136)"/>
<path d="M0 0 C2.3129482 2.3129482 2.49580975 3.47904875 3.125 6.625 C3.29257812 7.44226563 3.46015625 8.25953125 3.6328125 9.1015625 C3.81457031 10.04128906 3.81457031 10.04128906 4 11 C3.34 9.68 2.68 8.36 2 7 C1.34 7 0.68 7 0 7 C0 4.69 0 2.38 0 0 Z " fill="#5141D3" transform="translate(721,97)"/>
<path d="M0 0 C0.66 0 1.32 0 2 0 C2 1.32 2 2.64 2 4 C2.99 4 3.98 4 5 4 C4.67 5.32 4.34 6.64 4 8 C3.34 8 2.68 8 2 8 C0.74335022 5.09399739 0 3.20395416 0 0 Z " fill="#5242CE" transform="translate(247,65)"/>
<path d="M0 0 C4.21912747 0.4794463 6.79663178 1.16625119 10 4 C6.14354879 4.22036864 3.50776784 3.60355101 0 2 C0 1.34 0 0.68 0 0 Z " fill="#503FD4" transform="translate(553,11)"/>
<path d="M0 0 C0.33 0.66 0.66 1.32 1 2 C-0.39789678 4.79579355 -2.2628997 5.59807058 -5 7 C-5.66 6.67 -6.32 6.34 -7 6 C-4.69 4.02 -2.38 2.04 0 0 Z " fill="#4E3DD2" transform="translate(39,69)"/>
</svg>
